<?xml version="1.0" encoding="utf-8"?>
<!-- Generator: Adobe Illustrator 23.0.4, SVG Export Plug-In . SVG Version: 6.00 Build 0)  -->
<svg version="1.1" id="Layer_1" xmlns="http://www.w3.org/2000/svg" xmlns:xlink="http://www.w3.org/1999/xlink" x="0px" y="0px"
	 viewBox="0 0 541.1 516.8" style="enable-background:new 0 0 541.1 516.8;" xml:space="preserve">
<style type="text/css">
	.st0{fill:#F4B21E;}
	.st1{fill:#FFFFFF;stroke:#FFFFFF;stroke-width:3;stroke-miterlimit:10;}
</style>
<g>
	<g>
		<path class="st0" d="M280.3,0C178,0,94.8,83.2,94.8,185.4c0,126.9,165.9,313.2,173,321c6.6,7.4,18.2,7.4,24.8,0
			c7.1-7.9,173-194.1,173-321C465.7,83.2,382.5,0,280.3,0z"/>
	</g>
</g>
<path class="st1" d="M414,208.2h-3.2v-22.9c1,0.1,1.9,0.2,2.9,0.3c0.1,0,0.2,0,0.3,0c2.1,0,3.8-1.6,4-3.7c0.2-2.2-1.5-4.2-3.7-4.3
	c-2.2-0.2-4.4-0.5-6.6-0.8c-0.1,0-0.3-0.1-0.5-0.1c-8.8-1.6-17-4.8-24.5-9.4c-0.3-0.3-0.6-0.5-1-0.6c-7.8-5.1-14.7-11.7-20.1-19.7
	v-23.3c0-3.4-2.8-6.2-6.2-6.2h-6.6c-3.4,0-6.2,2.8-6.2,6.2v16.5c-26.6,50.5-98.6,49.9-124.9,0v-16.5c0-3.4-2.8-6.2-6.2-6.2H205
	c-3.4,0-6.2,2.8-6.2,6.2v23.3c-5.4,8-12.3,14.6-20.1,19.7c-0.4,0.2-0.7,0.4-1,0.6c-7.4,4.6-15.7,7.8-24.4,9.4c-0.2,0-0.3,0-0.5,0.1
	c-2.2,0.4-4.4,0.7-6.6,0.8c-2.2,0.2-3.9,2.1-3.7,4.3c0.2,2.1,1.9,3.7,4,3.7c0.1,0,0.2,0,0.3,0c1-0.1,1.9-0.2,2.9-0.3v22.9h-3.2
	c-2.2,0-4,1.8-4,4c0,2.2,1.8,4,4,4h52.3v33.9c0,3.2,2.6,5.8,5.8,5.8h7.5c3.2,0,5.8-2.6,5.8-5.8v-33.9h124.9v33.9
	c0,3.2,2.6,5.8,5.8,5.8h7.5c3.2,0,5.8-2.6,5.8-5.8v-33.9H414c2.2,0,4-1.8,4-4C418.1,210,416.2,208.2,414,208.2z M176.3,208.2h-18.5
	V184c6.4-1.5,12.7-3.7,18.5-6.7V208.2z M350.8,141v-15.5h2.9V148c0,0.1,0,0.2,0,0.3v48.5h-2.9v-55.5
	C350.8,141.2,350.8,141.1,350.8,141z M206.9,148v-22.5h2.9V141c0,0.1,0,0.2,0,0.3v55.5h-2.9v-48.5
	C206.9,148.2,206.9,148.1,206.9,148z M184.4,208.2v-35.7c5.3-3.6,10.2-7.8,14.4-12.5v42.6v5.7H184.4z M236.3,208.2h-18.5v-5.7v-47.4
	c5.2,6.9,11.5,12.7,18.5,17.5V208.2z M262.9,208.2h-18.5v-30.9c5.8,3,12,5.2,18.5,6.7V208.2z M289.5,208.2H271v-22.9
	c6,0.7,12.2,0.7,18.5,0V208.2z M316.1,208.2h-18.5V184c6.5-1.5,12.7-3.7,18.5-6.7V208.2z M324.2,208.2v-35.7
	c7-4.7,13.3-10.6,18.5-17.5v47.4v5.7H324.2z M376.2,208.2h-14.4v-5.7V160c4.3,4.7,9.2,9,14.4,12.5V208.2z M402.8,208.2h-18.5v-31
	c5.9,3,12.1,5.3,18.5,6.7V208.2z"/>
</svg>
