<svg xmlns="http://www.w3.org/2000/svg" xmlns:xlink="http://www.w3.org/1999/xlink" width="400.097" height="520.049" viewBox="0 0 400.097 520.049">
  <defs>
    <clipPath id="clip-path">
      <rect width="394.833" height="520.049" fill="none"/>
    </clipPath>
  </defs>
  <g id="Group_3" data-name="Group 3" transform="translate(-361.596 695.025)">
    <g id="Path_4" data-name="Path 4" transform="translate(243.211 -746.521)" fill="none">
      <path d="M318.559,520.333h-.01a200.305,200.305,0,0,1-45.939-5.368L513.146,274.429a200.129,200.129,0,0,1-194.586,245.9ZM124.166,367.98h0A199.9,199.9,0,0,1,366.1,126.046Z" stroke="none"/>
      <path d="M 341.1929321289063 488.8080749511719 C 351.9584350585938 487.3493041992188 362.5814819335938 484.8482360839844 372.9577331542969 481.3221740722656 C 390.2977294921875 475.4297485351563 406.5028076171875 466.8333435058594 421.1228332519531 455.7716674804688 C 435.8774108886719 444.6082458496094 448.6131591796875 431.2344055175781 458.9762268066406 416.0216674804688 C 469.6964721679688 400.2848205566406 477.6583251953125 382.8774108886719 482.6407470703125 364.2826538085938 C 484.5137023925781 357.2927856445313 485.9413146972656 350.2091369628906 486.9161987304688 343.0848388671875 L 341.1929321289063 488.8080749511719 M 149.6127319335938 300.1070861816406 L 298.2928161621094 151.427001953125 C 286.6330871582031 152.8210296630859 275.1282043457031 155.4345397949219 263.9131469726563 159.2453308105469 C 246.5725708007813 165.1376647949219 230.3669891357422 173.7340087890625 215.7463989257813 184.7958374023438 C 200.9912414550781 195.9593353271484 188.2549896240234 209.3333282470703 177.8913116455078 224.5462493896484 C 167.170654296875 240.2835083007813 159.2085723876953 257.69091796875 154.226318359375 276.2848205566406 C 152.1232604980469 284.1336059570313 150.5821838378906 292.0981140136719 149.6127319335938 300.1070861816406 M 318.5592346191406 520.33349609375 L 318.5488891601563 520.33349609375 C 303.1621398925781 520.33349609375 287.7059020996094 518.52734375 272.6095581054688 514.965087890625 L 513.1456298828125 274.4290771484375 C 516.8697509765625 290.1820983886719 518.6600952148438 306.3595886230469 518.4685668945313 322.5125732421875 C 518.271240234375 339.1546630859375 515.966552734375 355.8204956054688 511.6184997558594 372.0474243164063 C 505.7618103027344 393.9049987792969 496.3922424316406 414.3827514648438 483.7699890136719 432.9116821289063 C 471.5691528320313 450.8220825195313 456.5816650390625 466.5625 439.2238159179688 479.6955871582031 C 422.0408325195313 492.6964111328125 402.9932250976563 502.8004150390625 382.6101379394531 509.7269287109375 C 361.9024963378906 516.7638549804688 340.3526611328125 520.3323974609375 318.5592346191406 520.33349609375 Z M 124.1659851074219 367.9801635742188 L 124.1645660400391 367.978759765625 L 124.1658172607422 367.9775085449219 C 120.2183990478516 351.9599304199219 118.2752380371094 335.4892578125 118.3899841308594 319.02392578125 C 118.5082321166992 302.0555114746094 120.8158187866211 285.0636596679688 125.2484817504883 268.5204162597656 C 131.1052398681641 246.6629943847656 140.4750671386719 226.1853332519531 153.0977325439453 207.6560821533203 C 165.2992401123047 189.7453308105469 180.2873229980469 174.0047454833984 197.6457366943359 160.8716735839844 C 214.8294830322266 147.8705902099609 233.8777313232422 137.7666625976563 254.26123046875 130.8404235839844 C 274.9697265625 123.8037490844727 296.5199890136719 120.2359161376953 318.3131408691406 120.2359161376953 C 334.3361511230469 120.2359161376953 350.413818359375 122.1908340454102 366.0997314453125 126.0464172363281 L 124.1659851074219 367.9801635742188 Z" stroke="none" fill="#fff"/>
    </g>
    <g id="Component_1_2" data-name="Component 1 – 2" transform="translate(364.584 -695.025)" clip-path="url(#clip-path)">
      <path id="Path_5" data-name="Path 5" d="M0,447,259,0" transform="matrix(0.966, 0.259, -0.259, 0.966, 130.175, 10.623)" fill="none" stroke="#fff" stroke-width="30" stroke-dasharray="99 100"/>
    </g>
  </g>
</svg>
