<svg id="Laag_1" data-name="Laag 1" xmlns="http://www.w3.org/2000/svg" viewBox="0 0 71.28 98.42">
  <defs>
    <style>
      .cls-1 {
        fill: #e5ad10;
      }

      .cls-2 {
        fill: #fff;
      }
    </style>
  </defs>
  <title>pin-timebeforereopeningroad</title>
  <path class="cls-1" d="M71.22,22A35.69,35.69,0,0,0,35.56,57.68c0,24.4,31.89,60.21,33.26,61.71a3.2,3.2,0,0,0,4.77,0c1.36-1.52,33.25-37.31,33.25-61.71A35.65,35.65,0,0,0,71.22,22Z" transform="translate(-35.56 -22.04)"/>
  <g>
    <path class="cls-2" d="M71.2,36.35A21.47,21.47,0,1,0,92.67,57.81,21.49,21.49,0,0,0,71.2,36.35Zm0,38.36a16.9,16.9,0,1,1,16.9-16.9A16.92,16.92,0,0,1,71.2,74.71Z" transform="translate(-35.56 -22.04)"/>
    <path class="cls-2" d="M82.39,57.15H72.74V45.55a1.77,1.77,0,1,0-3.53,0V58.92A1.76,1.76,0,0,0,71,60.68H82.39a1.77,1.77,0,1,0,0-3.53Z" transform="translate(-35.56 -22.04)"/>
  </g>
</svg>
