<svg id="Laag_1" data-name="Laag 1" xmlns="http://www.w3.org/2000/svg" viewBox="0 0 71.28 98.42">
  <defs>
    <style>
      .cls-1 {
        fill: #e30615;
      }

      .cls-2 {
        fill: #fff;
      }
    </style>
  </defs>
  <title>pin-incident-fire</title>
  <g>
    <path class="cls-1" d="M71,21.2A35.7,35.7,0,0,0,35.33,56.85c0,24.39,31.89,60.2,33.26,61.7a3.19,3.19,0,0,0,4.77,0c1.36-1.51,33.25-37.31,33.25-61.7A35.66,35.66,0,0,0,71,21.2Z" transform="translate(-35.33 -21.2)"/>
    <path class="cls-2" d="M88.19,62.33c-.51-6.65-3.61-10.82-6.34-14.49-2.53-3.41-4.71-6.35-4.71-10.68a.94.94,0,0,0-.51-.83.92.92,0,0,0-1,.07A23.62,23.62,0,0,0,67,49a41.44,41.44,0,0,0-1,9.42c-3.78-.81-4.64-6.47-4.65-6.53a.92.92,0,0,0-.48-.69.94.94,0,0,0-.85,0c-.19.1-4.87,2.47-5.14,12,0,.32,0,.63,0,1A16.73,16.73,0,0,0,71.56,80.8s0,0,0,0h0A16.73,16.73,0,0,0,88.28,64.09C88.28,63.63,88.19,62.33,88.19,62.33ZM71.56,79A5.77,5.77,0,0,1,66,73c0-.11,0-.22,0-.36a7.54,7.54,0,0,1,.59-3,3.38,3.38,0,0,0,3.06,2.22.92.92,0,0,0,.93-.93,18.53,18.53,0,0,1,.36-4.22,8.9,8.9,0,0,1,1.88-3.56,11.91,11.91,0,0,0,1.91,3.51,10.53,10.53,0,0,1,2.38,5.8,3.91,3.91,0,0,1,0,.49A5.78,5.78,0,0,1,71.56,79Z" transform="translate(-35.33 -21.2)"/>
  </g>
</svg>
