<svg id="Laag_1" data-name="Laag 1" xmlns="http://www.w3.org/2000/svg" viewBox="0 0 71.28 98.42">
  <defs>
    <style>
      .cls-1 {
        fill: #93316b;
      }

      .cls-2 {
        fill: #fff;
      }
    </style>
  </defs>
  <title>pin-maximum-speed</title>
  <g>
    <path class="cls-1" d="M70.89,21.66A35.69,35.69,0,0,0,35.23,57.3c0,24.39,31.89,60.21,33.25,61.71a3.2,3.2,0,0,0,4.77,0c1.36-1.52,33.26-37.32,33.26-61.71A35.66,35.66,0,0,0,70.89,21.66Z" transform="translate(-35.23 -21.66)"/>
    <g>
      <path class="cls-2" d="M94.11,61.05v-.72h0v-.09h0v-.15l0-.51v-.13l0-.17,0-.33,0-.33,0-.17,0-.15c-.05-.4-.1-.8-.17-1.18,0-.19-.07-.38-.1-.56L93.52,56c-.07-.34-.16-.67-.23-1l-.06-.22,0-.21c0-.13-.08-.26-.11-.38S93,54,93,53.89l-.09-.28-.1-.32a.25.25,0,0,0-.3-.16l-7.86,2.24a.25.25,0,0,0-.17.28l0,.16,0,.19,0,.23,0,.27a.59.59,0,0,1,0,.14l0,.15c0,.2.05.42.07.66l0,.36c0,.12,0,.25,0,.38s0,.52,0,.79v.75c0,.18,0,.35,0,.52v.13h0v-.08h0v.08l0,.2,0,.2,0,.19c0,.13,0,.26-.05.39l0,.37-.06.35c0,.11,0,.22-.07.33l-.06.3L84.3,63l0,.13,0,.11,0,.06h9.62a.24.24,0,0,0,.24-.23h0l0-.55c0-.18,0-.38,0-.57s0-.39,0-.59Z" transform="translate(-35.23 -21.66)"/>
      <path class="cls-2" d="M91.61,51a.23.23,0,0,0,.13-.32l-.1-.2-.1-.23-.17-.34-.19-.38a1.86,1.86,0,0,1-.1-.2L91,49.1c-.07-.14-.15-.28-.23-.42l-.26-.44L90.35,48l-.15-.23-.29-.48c-.22-.31-.43-.64-.67-1l-.18-.25L89,46l-.1-.12-.37-.48c-.12-.16-.25-.31-.38-.47s-.13-.16-.2-.23l-.19-.23-.2-.22-.2-.22L87,43.58l-.39-.39-.38-.38-.37-.34-.35-.31-.33-.29-.3-.25-.27-.21-.23-.18-.25-.2a.24.24,0,0,0-.33,0l-4.22,5.11a.24.24,0,0,0,0,.32l.13.12.14.15L80,47l.19.2.2.22c.07.08.15.16.22.25l.23.28c.08.09.15.19.23.29l.24.31.24.32a1.63,1.63,0,0,1,.11.17l.12.17.12.17.11.18.23.36.21.36,0,.09,0,.09.1.18c.14.24.26.49.38.72l.16.35.08.17.07.17c.05.11.09.22.14.32l.12.3,0,.15a.69.69,0,0,1,.05.13l.08.22.07.2.08.23.06.2a.24.24,0,0,0,.32.15Z" transform="translate(-35.23 -21.66)"/>
      <path class="cls-2" d="M70.12,41.84l.21,0,.25,0,.28.05.27,0,2.66-5.44-.39-.06-.26,0-.25,0-.49-.06-.46,0-.42,0-.38,0-.33,0h-.59a.25.25,0,0,0-.25.23l-.24,5.07a.23.23,0,0,0,.21.25Z" transform="translate(-35.23 -21.66)"/>
      <path class="cls-2" d="M77.28,44.63l.2.15.18.13a.46.46,0,0,1,.1.07l.09.07.17.13a.25.25,0,0,0,.35-.06l3.48-5.3a.24.24,0,0,0-.08-.34l-.19-.11-.1-.06-.13-.07L81,39.07l-.36-.2-.39-.19-.42-.21-.45-.21-.48-.21-.51-.2-.14-.06-1.5,6.51.24.16Z" transform="translate(-35.23 -21.66)"/>
      <path class="cls-2" d="M65.45,41.81l.2,0,.2,0,.37,0,.35,0h1.28a.24.24,0,0,0,.24-.26l-.31-4.77a.24.24,0,0,0-.27-.23l-.22,0-.25,0-.34.05-.4.06-.2,0-.21,0-.44.08-.48.11-.24.06-.25.06-.52.14-.52.16-.27.08-.27.09-.27.09-.27.1-.53.21-.53.22-.26.11-.26.12-.26.11-.25.12-.48.25-.46.25c-.15.08-.3.16-.44.25l-.41.24c-.13.07-.25.16-.37.23l-.35.22-.3.21-.26.18-.23.16-.23.17a.25.25,0,0,0-.05.33l2,2.92A.24.24,0,0,0,59,44l.18-.1.19-.11.24-.12.26-.14.3-.14.33-.15.35-.16.37-.15.4-.16.41-.14a1,1,0,0,1,.21-.07l.21-.07.21-.07.22-.06.44-.13.44-.11.22,0,.22,0L64.4,42l.22,0,.42-.07Z" transform="translate(-35.23 -21.66)"/>
      <path class="cls-2" d="M51.93,45.58l-.15.22-.16.23-.15.23c-.1.15-.21.3-.31.46l-.28.47-.08.11-.06.12-.14.24c-.18.31-.34.63-.5.93l-.22.45-.11.22-.1.22-.18.42-.17.39-.14.36-.13.33-.11.29-.08.25-.09.25a.25.25,0,0,0,.15.31l1.84.7a.24.24,0,0,0,.31-.12l.09-.2.1-.21.13-.24.14-.28.17-.31.19-.32.21-.35.1-.18.12-.18.24-.37c.17-.25.34-.5.54-.75l.14-.19.07-.1.07-.09.3-.38.31-.36.15-.18.16-.17.15-.18a1.29,1.29,0,0,0,.16-.17l.32-.32.31-.31.3-.28.29-.27.28-.24.26-.22.22-.18.2-.16.1-.07.1-.07.17-.13a.24.24,0,0,0,0-.35l-2.11-2.46a.23.23,0,0,0-.35,0l-.15.15-.09.08-.09.1-.24.23-.26.27-.27.29c-.1.11-.2.21-.3.33l-.3.35-.31.38-.32.39-.32.43Z" transform="translate(-35.23 -21.66)"/>
      <path class="cls-2" d="M48.11,54.21l0,.22,0,.24c0,.09,0,.2-.05.31l-.06.35a1.08,1.08,0,0,0,0,.19l0,.19c0,.27-.08.56-.11.86l0,.47c0,.17,0,.33,0,.5,0,.33,0,.68,0,1v1.06l0,.53v.27l0,.25,0,.25,0,.26,0,.26v.12l0,.13.06.48.07.46c0,.15.05.3.08.44v0a.25.25,0,0,0,.24.2h.65a.24.24,0,0,0,.24-.26v-.11c0-.14,0-.27,0-.42V60.31h0v-.14l0-.5v-.25l0-.24,0-.25v-.12l0-.12c0-.32.09-.64.15-.94l.09-.45.09-.42c.06-.28.13-.53.19-.77l.05-.18a1.42,1.42,0,0,1,0-.16l.09-.29c0-.1,0-.18.07-.27l.08-.23.07-.21a.24.24,0,0,0-.17-.31L48.41,54A.24.24,0,0,0,48.11,54.21Z" transform="translate(-35.23 -21.66)"/>
      <path class="cls-2" d="M66.57,62.67a3.76,3.76,0,0,0,5-1.73,4,4,0,0,0,.28-.8l3.8-16.48,1.44-6.28.9-3.89a.62.62,0,0,0-.62-.76.6.6,0,0,0-.54.35L75,36.81l-2.69,5.5-7.5,15.34A3.75,3.75,0,0,0,66.57,62.67Zm1.79-5.31a1.84,1.84,0,1,1-1.84,1.84A1.84,1.84,0,0,1,68.36,57.36Z" transform="translate(-35.23 -21.66)"/>
    </g>
  </g>
</svg>
