<svg id="Laag_1" data-name="Laag 1" xmlns="http://www.w3.org/2000/svg" viewBox="0 0 71.28 98.42">
  <defs>
    <style>
      .cls-1 {
        fill: #182641;
      }

      .cls-2 {
        fill: #fff;
        stroke: #fff;
        stroke-miterlimit: 10;
        stroke-width: 0.5px;
      }
    </style>
  </defs>
  <title>pin-matrix-signalisation</title>
  <g>
    <path class="cls-1" d="M71.42,21.8A35.69,35.69,0,0,0,35.76,57.44c0,24.39,31.89,60.21,33.25,61.71a3.2,3.2,0,0,0,4.77,0C75.15,117.63,107,81.83,107,57.44A35.66,35.66,0,0,0,71.42,21.8Z" transform="translate(-35.76 -21.8)"/>
    <path class="cls-2" d="M87.39,35.07h-32a6,6,0,0,0-6,6v32a6,6,0,0,0,6,6h32a6,6,0,0,0,6-6v-32A6,6,0,0,0,87.39,35.07Zm4.29,38a4.3,4.3,0,0,1-4.29,4.3h-32a4.31,4.31,0,0,1-4.3-4.3v-32a4.31,4.31,0,0,1,4.3-4.3h32a4.3,4.3,0,0,1,4.29,4.3Z" transform="translate(-35.76 -21.8)"/>
    <path class="cls-2" d="M84.81,46.8h-8l-1-4.91a1,1,0,0,0-.95-.77h-7a1,1,0,0,0-1,.77l-1,4.91H58a1,1,0,0,0-1,1v7.39a1,1,0,0,0,1,1h2.91a1,1,0,0,0,1-1,3.28,3.28,0,0,1,1.27-2.68h1.6L60.66,71.86a.94.94,0,0,0,.19.81,1,1,0,0,0,.76.36H81.19a1,1,0,0,0,.75-.36.94.94,0,0,0,.2-.81l-1.09-5.15-1.8-8.56-1.19-5.67h1.6a3.29,3.29,0,0,1,1.27,2.68,1,1,0,0,0,1,1h2.91a1,1,0,0,0,1-1V47.77A1,1,0,0,0,84.81,46.8ZM72.32,43.06h1.76l.79,3.74H72.32Zm-3.6,0h1.66V46.8H67.93ZM60,54.18H59v-1.7h1.65A5.23,5.23,0,0,0,60,54.18ZM70.38,71.09H62.81l3.92-18.61h3.65Zm8.77-4,.83,4H72.32V52.48h3.74l1.28,6.07Zm4.69-12.94h-1a5.23,5.23,0,0,0-.6-1.7h1.65Zm0-3.65H59V48.75H83.84Z" transform="translate(-35.76 -21.8)"/>
  </g>
</svg>
