<svg id="Laag_1" data-name="Laag 1" xmlns="http://www.w3.org/2000/svg" viewBox="0 0 71.28 98.42">
  <defs>
    <style>
      .cls-1 {
        fill: #eb5c0b;
      }

      .cls-2 {
        fill: #fff;
      }

      .cls-2, .cls-3 {
        stroke: #fff;
        stroke-miterlimit: 10;
      }

      .cls-3 {
        fill: none;
        stroke-width: 2.5px;
      }
    </style>
  </defs>
  <title>pin-bridge-open</title>
  <g>
    <path class="cls-1" d="M71.11,21.54A35.69,35.69,0,0,0,35.45,57.18c0,24.4,31.89,60.21,33.25,61.71a3.2,3.2,0,0,0,4.77,0c1.37-1.52,33.26-37.31,33.26-61.71A35.67,35.67,0,0,0,71.11,21.54Z" transform="translate(-35.45 -21.54)"/>
    <g>
      <path class="cls-2" d="M59.76,61.21V49.27l0,0V46.07a1.2,1.2,0,0,0-1.19-1.2H57.3a1.2,1.2,0,0,0-1.19,1.2v4.47a13.68,13.68,0,0,1-3.87,3.79l-.19.12a13.45,13.45,0,0,1-4.69,1.8.18.18,0,0,0-.1,0,9,9,0,0,1-1.26.16.77.77,0,0,0,0,1.53h.06l.56-.05v4.4h-.62a.77.77,0,0,0,0,1.54H56.11v6.51a1.12,1.12,0,0,0,1.11,1.12h1.44a1.12,1.12,0,0,0,1.1-.93V61.21Zm-8,1.1H48.23V57.66a15.23,15.23,0,0,0,3.55-1.29Zm4.33-1.08v1.1H53.34V55.45A15.22,15.22,0,0,0,56.11,53Z" transform="translate(-35.45 -21.54)"/>
      <rect class="cls-2" x="57.24" y="59.06" width="11.11" height="1.79" rx="0.89" transform="translate(-58.93 28.75) rotate(-37.28)"/>
      <path class="cls-3" d="M59,49.62a9.65,9.65,0,0,0,7.26,7.54" transform="translate(-35.45 -21.54)"/>
      <path class="cls-2" d="M82.42,62.31v8.24a1.11,1.11,0,0,0,1.09.93H85a1.12,1.12,0,0,0,1.12-1.12V63.85H96.12a.77.77,0,0,0,0-1.54h-.61v-4.4l.55.05h.06a.77.77,0,0,0,.06-1.53,9.19,9.19,0,0,1-1.27-.16.18.18,0,0,0-.1,0,13.52,13.52,0,0,1-4.69-1.8,1,1,0,0,0-.19-.12,13.65,13.65,0,0,1-3.86-3.79V46.07a1.2,1.2,0,0,0-1.19-1.2H83.63a1.2,1.2,0,0,0-1.2,1.2V62.31Zm8-5.94A15.47,15.47,0,0,0,94,57.66v4.65H90.39ZM86.07,53a15.22,15.22,0,0,0,2.77,2.41v6.88H86.07V53Z" transform="translate(-35.45 -21.54)"/>
      <rect class="cls-2" x="73.83" y="59.06" width="11.11" height="1.79" rx="0.89" transform="translate(70.78 134.2) rotate(-142.72)"/>
      <path class="cls-3" d="M83.14,49.62a9.68,9.68,0,0,1-7.26,7.54" transform="translate(-35.45 -21.54)"/>
    </g>
  </g>
</svg>
