<svg id="Laag_1" data-name="Laag 1" xmlns="http://www.w3.org/2000/svg" viewBox="0 0 71.28 98.42">
  <defs>
    <style>
      .cls-1 {
        fill: #93c020;
      }

      .cls-2 {
        fill: #fff;
      }
    </style>
  </defs>
  <title>pin-data-for-logistics</title>
  <path class="cls-1" d="M71,21.8A35.69,35.69,0,0,0,35.32,57.44c0,24.39,31.89,60.21,33.26,61.71a3.19,3.19,0,0,0,4.76,0c1.37-1.52,33.26-37.32,33.26-61.71A35.65,35.65,0,0,0,71,21.8Z" transform="translate(-35.32 -21.8)"/>
  <path class="cls-2" d="M46.21,63.3V40.65a2.28,2.28,0,0,1,2.28-2.28H71.13a2.28,2.28,0,0,1,2.27,2.28V63.3a.76.76,0,0,1-.75.76H47A.76.76,0,0,1,46.21,63.3Zm18.28,7.75a4.73,4.73,0,1,1-4.73-4.72A4.73,4.73,0,0,1,64.49,71.05Zm-2.36,0a2.37,2.37,0,1,0-2.37,2.37A2.37,2.37,0,0,0,62.13,71.05Zm-6.44-4.72H45.1a.76.76,0,0,0-.76.76v2.3a.76.76,0,0,0,.76.76h8.49A6.23,6.23,0,0,1,55.69,66.33Zm33.53,4.72a4.73,4.73,0,1,1-4.73-4.72A4.73,4.73,0,0,1,89.22,71.05Zm-2.36,0a2.37,2.37,0,1,0-2.37,2.37A2.37,2.37,0,0,0,86.86,71.05Zm10.71-4v2.3a.76.76,0,0,1-.76.76H90.66a6.23,6.23,0,0,0-12.34,0H65.94a6.23,6.23,0,0,0-2.1-3.82H75.58V44.6a1.52,1.52,0,0,1,1.52-1.52h7.17a6.08,6.08,0,0,1,5,2.68l4.63,6.85A6.11,6.11,0,0,1,95,56V66.33h1.84A.76.76,0,0,1,97.57,67.09Zm-7.7-14.31-3.7-5.25a.75.75,0,0,0-.62-.32H79.78A.76.76,0,0,0,79,48v5.25a.76.76,0,0,0,.75.76h9.47A.76.76,0,0,0,89.87,52.78Z" transform="translate(-35.32 -21.8)"/>
</svg>
