<svg id="Laag_1" data-name="Laag 1" xmlns="http://www.w3.org/2000/svg" viewBox="0 0 71.28 98.42">
  <defs>
    <style>
      .cls-1 {
        fill: #e30615;
      }

      .cls-2 {
        fill: #fff;
      }
    </style>
  </defs>
  <title>pin-incident-car</title>
  <g>
    <path class="cls-1" d="M71.11,21.2A35.7,35.7,0,0,0,35.45,56.85c0,24.39,31.89,60.2,33.25,61.7a3.19,3.19,0,0,0,4.77,0c1.37-1.51,33.26-37.31,33.26-61.7A35.67,35.67,0,0,0,71.11,21.2Z" transform="translate(-35.45 -21.2)"/>
    <path class="cls-2" d="M76.13,45.87l-3.8,5L74.77,45a.55.55,0,0,1,.47-.47c.06,0,.11.06.23.11l.36.18.35.17C76.49,45.22,76.43,45.5,76.13,45.87ZM71,51.31,72.05,43c.11-.59-.06-1-.48-1H70.39c-.42,0-.59.35-.48,1Zm1.48,9.06a4.78,4.78,0,0,1,.48,2.13v7.88a.59.59,0,0,1-.59.59H69.27a.56.56,0,0,1-.59-.59V68.43H52.26v1.95a.58.58,0,0,1-.58.59h-3.1a.56.56,0,0,1-.59-.59V62.5a4.44,4.44,0,0,1,.48-2.13l3.85-8A3.11,3.11,0,0,1,55,50.61h10.9a3.31,3.31,0,0,1,2.73,1.71Zm-21-.34h18l-2.61-5.57a1.93,1.93,0,0,0-2.12-1.3h-9a1.85,1.85,0,0,0-1.65,1.3Zm2.49,4a1.93,1.93,0,0,0-2-1.9,1.87,1.87,0,0,0-1.89,1.9A1.92,1.92,0,0,0,52,66,2,2,0,0,0,53.92,64.05Zm16.94,0a1.93,1.93,0,0,0-2-1.9A1.87,1.87,0,0,0,67,64.05a1.92,1.92,0,0,0,1.89,2A2,2,0,0,0,70.86,64.05ZM69.68,51.37l-2.43-5.81c-.12-.3-.3-.47-.48-.47H66.6c-.06,0-.06.06-.12.06l-.35.17-.3.24c-.3.17-.24.47.06.83ZM94,62.74l-1.78,6.7-.23.89a.6.6,0,0,1-.71.41l-3-.77a.61.61,0,0,1-.42-.71l.24-.89.3-1-14.64-3.9V62.38a6.79,6.79,0,0,0-.17-1.48,1.92,1.92,0,0,0,1.71-1.43A2,2,0,0,0,74,57.1a2.13,2.13,0,0,0-1.78.48l-1.37-2.85c.06-.06.11-.17.17-.23l5.81-6.76a3.28,3.28,0,0,1,2.25-1.06,3.13,3.13,0,0,1,.78.06l10.37,2.67a3.25,3.25,0,0,1,2.19,2.37l1.66,8.77A4.32,4.32,0,0,1,94,62.74Zm-2.54-3.07-1.13-6a2,2,0,0,0-1.71-1.84L80.4,49.53a3.56,3.56,0,0,0-1-.11,2.28,2.28,0,0,0-1.36.89L74,55Zm-1.13,1.9A.61.61,0,0,0,90,61.5h-.36A1.77,1.77,0,0,0,88,62.93a1.93,1.93,0,0,0,1.31,2.37,1.93,1.93,0,1,0,1-3.73Z" transform="translate(-35.45 -21.2)"/>
  </g>
</svg>
