<svg id="Laag_1" data-name="Laag 1" xmlns="http://www.w3.org/2000/svg" viewBox="0 0 71.28 98.42">
  <defs>
    <style>
      .cls-1 {
        fill: #efdd00;
      }

      .cls-2 {
        fill: #fff;
        stroke: #fff;
        stroke-miterlimit: 10;
        stroke-width: 0.5px;
      }
    </style>
  </defs>
  <title>pin-actualmaintenance</title>
  <g>
    <path class="cls-1" d="M71.22,22A35.69,35.69,0,0,0,35.56,57.67c0,24.39,31.89,60.21,33.26,61.71a3.2,3.2,0,0,0,4.77,0c1.36-1.52,33.25-37.32,33.25-61.71A35.65,35.65,0,0,0,71.22,22Z" transform="translate(-35.56 -22.03)"/>
    <path class="cls-2" d="M88.12,71.51H84.39l-4.6-16.8s0,0,0-.06L78,48l0-.2h0l-2-7.31a1.6,1.6,0,0,0-1.55-1.18H68a1.61,1.61,0,0,0-1.55,1.18l-3.55,13-.31,1.13h0L58,71.51H54.28a.94.94,0,0,0-.93.94V75a.93.93,0,0,0,.93.93H88.12a.94.94,0,0,0,.94-.93V72.45A.94.94,0,0,0,88.12,71.51ZM64.25,55.81H78.16l1.71,6.25a1.26,1.26,0,0,1-1.22,1.59H63.75a1.26,1.26,0,0,1-1.21-1.59ZM69.46,41.2h3.48a1.6,1.6,0,0,1,1.54,1.17l1.31,4.76H66.62l1.3-4.76A1.6,1.6,0,0,1,69.46,41.2Z" transform="translate(-35.56 -22.03)"/>
  </g>
</svg>
