<svg id="Laag_1" data-name="Laag 1" xmlns="http://www.w3.org/2000/svg" viewBox="0 0 71.28 98.42">
  <defs>
    <style>
      .cls-1 {
        fill: #e30615;
      }

      .cls-2 {
        fill: #fff;
        stroke: #fff;
        stroke-miterlimit: 10;
      }
    </style>
  </defs>
  <title>pin-incident-general</title>
  <g>
    <path class="cls-1" d="M71.22,21.5A35.7,35.7,0,0,0,35.56,57.14c0,24.4,31.89,60.21,33.26,61.71a3.19,3.19,0,0,0,4.77,0c1.36-1.52,33.25-37.31,33.25-61.71A35.66,35.66,0,0,0,71.22,21.5Z" transform="translate(-35.56 -21.5)"/>
    <g id="Attention">
      <path class="cls-2" d="M91.46,69.21,74.1,39.13a3.47,3.47,0,0,0-6,0L50.73,69.21a3.47,3.47,0,0,0,3,5.2H88.45a3.47,3.47,0,0,0,3-5.2ZM53.74,71,71.09,40.86h0L88.45,70.94Zm17.35-8.11a2.32,2.32,0,1,0,2.32,2.32A2.32,2.32,0,0,0,71.09,62.84ZM68.78,52.43a2.56,2.56,0,0,0,0,.39L70,59.57a1.16,1.16,0,0,0,2.28,0l1.14-6.75a1.72,1.72,0,0,0,0-.39,2.32,2.32,0,0,0-4.63,0Z" transform="translate(-35.56 -21.5)"/>
    </g>
  </g>
</svg>
