<svg id="Laag_1" data-name="Laag 1" xmlns="http://www.w3.org/2000/svg" viewBox="0 0 71.28 98.42">
  <defs>
    <style>
      .cls-1 {
        fill: #00a977;
      }

      .cls-2 {
        fill: #fff;
        stroke: #fff;
        stroke-miterlimit: 10;
      }
    </style>
  </defs>
  <title>pin-bridge-closed</title>
  <g>
    <path class="cls-1" d="M71.22,21.54A35.7,35.7,0,0,0,35.56,57.18c0,24.4,31.89,60.21,33.26,61.71a3.2,3.2,0,0,0,4.77,0c1.36-1.52,33.25-37.31,33.25-61.71A35.66,35.66,0,0,0,71.22,21.54Z" transform="translate(-35.56 -21.54)"/>
    <path class="cls-2" d="M96.91,62.31H96.3v-4.4l.56.05h0a.77.77,0,0,0,.77-.71.76.76,0,0,0-.71-.82c-.42,0-.84-.1-1.27-.16l-.09,0a13.55,13.55,0,0,1-4.71-1.8.41.41,0,0,0-.2-.12,13.78,13.78,0,0,1-3.86-3.79V46.07a1.2,1.2,0,0,0-1.19-1.2H84.38a1.2,1.2,0,0,0-1.19,1.2v3.17a13.58,13.58,0,0,1-24,0V46.07A1.2,1.2,0,0,0,58,44.87H56.74a1.2,1.2,0,0,0-1.2,1.2v4.47a13.52,13.52,0,0,1-3.86,3.79,1.57,1.57,0,0,0-.19.12,13.45,13.45,0,0,1-4.69,1.8.18.18,0,0,0-.1,0,9,9,0,0,1-1.27.16A.77.77,0,0,0,45.49,58h.06l.56-.05v4.4h-.62a.77.77,0,1,0,0,1.54h10v6.51a1.12,1.12,0,0,0,1.12,1.12H58.1a1.12,1.12,0,0,0,1.12-1.12V63.85h24v6.51a1.12,1.12,0,0,0,1.11,1.12h1.44a1.12,1.12,0,0,0,1.12-1.12V63.85h10a.77.77,0,0,0,.77-.77A.76.76,0,0,0,96.91,62.31Zm-45.69,0H47.66V57.66a15.47,15.47,0,0,0,3.56-1.29ZM84.76,49.39v-3h.56V60.12h-.56V49.39ZM57.1,50.74V46.41h.56V60.12H57.1V50.74ZM52.78,62.31V55.45A15.16,15.16,0,0,0,55.54,53v9.29H52.78Zm10,0H59.2V52.1a15.33,15.33,0,0,0,3.55,3.37Zm5.12,0H64.31V56.37a15.14,15.14,0,0,0,3.56,1.29Zm5.11,0H69.42v-4.4a16.3,16.3,0,0,0,3.56,0Zm5.11,0H74.54V57.66a14.9,14.9,0,0,0,3.55-1.29Zm1.56,0V55.45a14.78,14.78,0,0,0,3.56-3.37V62.29H79.65Zm10,0H86.88V53a15.81,15.81,0,0,0,2.77,2.41Zm5.11,0H91.2v-6a14.9,14.9,0,0,0,3.56,1.29Z" transform="translate(-35.56 -21.54)"/>
  </g>
</svg>
