<svg id="Laag_1" data-name="Laag 1" xmlns="http://www.w3.org/2000/svg" viewBox="0 0 88 121.5">
  <defs>
    <style>
      .cls-1 {
        fill: #3aa636;
      }

      .cls-2 {
        fill: #fff;
        stroke: #fff;
        stroke-miterlimit: 10;
      }
    </style>
  </defs>
  <title>pin-bridge-closed</title>
  <path class="cls-1" d="M71.32,10.29a44.06,44.06,0,0,0-44,44c0,30.12,39.37,74.33,41.06,76.19a4,4,0,0,0,5.88,0c1.69-1.88,41.06-46.07,41.06-76.19A44,44,0,0,0,71.32,10.29Z" transform="translate(-27.3 -10.29)"/>
  <path class="cls-2" d="M103.05,60.6h-.76V55.17l.69.07h.07a1,1,0,0,0,1-.88.94.94,0,0,0-.88-1c-.52,0-1-.12-1.56-.19l-.12,0a16.88,16.88,0,0,1-5.82-2.23.46.46,0,0,0-.23-.14,16.86,16.86,0,0,1-4.77-4.68V40.55a1.48,1.48,0,0,0-1.47-1.47H87.58a1.47,1.47,0,0,0-1.47,1.47v3.92a16.76,16.76,0,0,1-29.64,0V40.55A1.48,1.48,0,0,0,55,39.08H53.45A1.48,1.48,0,0,0,52,40.55v5.53a16.86,16.86,0,0,1-4.77,4.68,1.38,1.38,0,0,0-.24.14,16.65,16.65,0,0,1-5.79,2.23.27.27,0,0,0-.12,0,10.38,10.38,0,0,1-1.56.19,1,1,0,0,0,.07,1.9h.07l.69-.07V60.6h-.76a.95.95,0,0,0,0,1.9H52v8a1.38,1.38,0,0,0,1.38,1.38h1.78a1.37,1.37,0,0,0,1.37-1.38v-8H86.16v8a1.37,1.37,0,0,0,1.37,1.38h1.78a1.38,1.38,0,0,0,1.38-1.38v-8h12.36a.94.94,0,0,0,1-1A.93.93,0,0,0,103.05,60.6Zm-56.41,0H42.25V54.86a18.89,18.89,0,0,0,4.39-1.59ZM88.05,44.66V41h.69V57.9h-.69V44.66ZM53.9,46.32V41h.69V57.9H53.9V46.32ZM48.56,60.6V52.13a18.66,18.66,0,0,0,3.42-3V60.63H48.56Zm12.32,0H56.49V48a18.63,18.63,0,0,0,4.39,4.16Zm6.31,0H62.8V53.27a18.57,18.57,0,0,0,4.39,1.59Zm6.32,0H69.12V55.17a19,19,0,0,0,4.39,0Zm6.31,0H75.43V54.86a18.57,18.57,0,0,0,4.39-1.59Zm1.92,0V52.13A18,18,0,0,0,86.13,48v12.6H81.74Zm12.34,0H90.66V49.17a20,20,0,0,0,3.42,3Zm6.31,0H96V53.25a18.48,18.48,0,0,0,4.39,1.59Z" transform="translate(-27.3 -10.29)"/>
</svg>
