<svg id="Laag_1" data-name="Laag 1" 
    xmlns="http://www.w3.org/2000/svg" viewBox="0 0 88 121.5">
    <defs>
        <style>
      .cls-1, .cls-2 {
        fill: #fff;
      }

      .cls-2, .cls-4 {
        stroke: #fff;
        stroke-miterlimit: 10;
      }

      .cls-3 {
        fill: #e0860f;
      }

      .cls-4 {
        fill: none;
        stroke-width: 2.5px;
      }
        </style>
    </defs>
    <title>pin-bridge-open</title>
    <path class="cls-1" d="M87.58,44V56.82h-.76V38.06h.76Z" transform="translate(-27.2 -10.28)"/>
    <path class="cls-2" d="M86.82,60V71.27a1.52,1.52,0,0,0,1.5,1.27h2A1.53,1.53,0,0,0,91.82,71V62.09h13.76a1.05,1.05,0,1,0,0-2.1h-.84V54l.76.08h.08a1.05,1.05,0,0,0,.08-2.1,14.75,14.75,0,0,1-1.74-.21.21.21,0,0,0-.13,0,18.51,18.51,0,0,1-6.42-2.47,1.64,1.64,0,0,0-.26-.16,18.53,18.53,0,0,1-5.29-5.19V37.75a1.64,1.64,0,0,0-1.63-1.63H88.48a1.65,1.65,0,0,0-1.64,1.63v4.34s0,0,0,0V60Zm10.92-8.13a20.68,20.68,0,0,0,4.87,1.76V60H97.74ZM91.82,47.3a19.92,19.92,0,0,0,3.79,3.29V60H91.82V47.3Z" transform="translate(-27.2 -10.28)"/>
    <path class="cls-3" d="M71.22,10.28a44.06,44.06,0,0,0-44,44c0,30.11,39.37,74.33,41.06,76.18a4,4,0,0,0,5.88,0c1.69-1.88,41.06-46.07,41.06-76.18A44,44,0,0,0,71.22,10.28Z" transform="translate(-27.2 -10.28)"/>
    <path class="cls-1" d="M56.54,47.07V58.65h.69V41.73h-.69Z" transform="translate(-27.2 -10.28)"/>
    <path class="cls-1" d="M85.88,47.07V58.65h-.69V41.73h.69Z" transform="translate(-27.2 -10.28)"/>
    <g>
        <path class="cls-2" d="M57.23,59.25V44.51l0,0V40.55a1.47,1.47,0,0,0-1.47-1.47H54.19a1.47,1.47,0,0,0-1.47,1.47v5.53A16.86,16.86,0,0,1,48,50.76a1.08,1.08,0,0,0-.24.14,16.8,16.8,0,0,1-5.79,2.23.25.25,0,0,0-.12,0,10.36,10.36,0,0,1-1.57.19,1,1,0,0,0,.07,1.9h.08l.68-.07V60.6H40.3a1,1,0,0,0,0,1.9H52.72v8a1.37,1.37,0,0,0,1.37,1.38h1.78a1.39,1.39,0,0,0,1.36-1.15V59.25ZM47.38,60.6H43V54.86a18.89,18.89,0,0,0,4.39-1.59Zm5.34-1.32v1.35H49.3v-8.5a18.66,18.66,0,0,0,3.42-3Z" transform="translate(-27.2 -10.28)"/>
        <rect class="cls-2" x="54.11" y="56.59" width="13.71" height="2.21" rx="1.1" transform="translate(-49.69 38.45) rotate(-37.28)"/>
        <path class="cls-4" d="M56.34,44.94a11.92,11.92,0,0,0,9,9.31" transform="translate(-27.2 -10.28)"/>
        <path class="cls-2" d="M85.19,60.6V70.78a1.39,1.39,0,0,0,1.36,1.15h1.78a1.37,1.37,0,0,0,1.37-1.38v-8h12.42a1,1,0,0,0,0-1.9h-.76V55.17l.68.07h.08a1,1,0,0,0,.07-1.9,10.51,10.51,0,0,1-1.57-.19.25.25,0,0,0-.12,0,16.8,16.8,0,0,1-5.79-2.23,1.08,1.08,0,0,0-.24-.14,17,17,0,0,1-4.77-4.68V40.55a1.47,1.47,0,0,0-1.47-1.47H86.69a1.47,1.47,0,0,0-1.47,1.47v3.92l0,0V60.6ZM95,53.27a19.06,19.06,0,0,0,4.39,1.59V60.6H95Zm-5.34-4.1a18.66,18.66,0,0,0,3.42,3v8.5H89.7V49.17Z" transform="translate(-27.2 -10.28)"/>
        <rect class="cls-2" x="74.6" y="56.59" width="13.71" height="2.21" rx="1.1" transform="translate(84.11 142.66) rotate(-142.72)"/>
        <path class="cls-4" d="M86.08,44.94a11.92,11.92,0,0,1-9,9.31" transform="translate(-27.2 -10.28)"/>
    </g>
</svg>