<svg xmlns="http://www.w3.org/2000/svg" viewBox="0 0 65.72 65.72">
  <defs>
  </defs>
  <title>bridge-closed</title>
  <g id="Layer_2" data-name="Layer 2">
    <g id="Laag_1" data-name="Laag 1">
      <g>
        <circle fill="#00b482" cx="32.86" cy="32.86" r="32.86"/>
        <path fill="#fff" d="M58.57,37H58v-4.4l.55.06h.06a.77.77,0,0,0,.77-.71.76.76,0,0,0-.71-.83L57.36,31l-.09,0a13.49,13.49,0,0,1-4.71-1.81.4.4,0,0,0-.2-.11,13.65,13.65,0,0,1-3.86-3.79V20.75a1.2,1.2,0,0,0-1.19-1.19H46a1.19,1.19,0,0,0-1.19,1.19v3.17a13.58,13.58,0,0,1-24,0V20.75a1.2,1.2,0,0,0-1.2-1.19H18.39a1.2,1.2,0,0,0-1.19,1.19v4.48A13.65,13.65,0,0,1,13.34,29a.68.68,0,0,0-.19.11,13.54,13.54,0,0,1-4.69,1.81.18.18,0,0,0-.1,0,11,11,0,0,1-1.27.15.77.77,0,0,0,.06,1.54h.06l.55-.06V37H7.15a.77.77,0,1,0,0,1.54h10v6.52a1.12,1.12,0,0,0,1.12,1.11h1.44a1.11,1.11,0,0,0,1.11-1.11V38.53h24v6.52A1.11,1.11,0,0,0,46,46.16h1.44a1.12,1.12,0,0,0,1.12-1.11V38.53h10a.77.77,0,0,0,0-1.54ZM12.88,37H9.32V32.34a15.47,15.47,0,0,0,3.56-1.29Zm4.32-1.07V37H14.43V30.13a14.84,14.84,0,0,0,2.77-2.4Zm2.12-11.84V34.8h-.56V21.1h.56ZM24.41,37H20.86V26.79a15.09,15.09,0,0,0,3.55,3.36Zm5.12,0H26V31.05a15,15,0,0,0,3.56,1.29Zm5.11,0H31.08v-4.4a15.14,15.14,0,0,0,3.56,0Zm5.11,0H36.2V32.34a14.9,14.9,0,0,0,3.55-1.29Zm5.12-1.11V37H41.31V30.13a14.74,14.74,0,0,0,3.56-3.36ZM47,25.42V34.8h-.56V21.1H47ZM51.31,37H48.54V27.73a15.4,15.4,0,0,0,2.77,2.4Zm5.11,0H52.86V31a14.9,14.9,0,0,0,3.56,1.29Z"/>
      </g>
    </g>
  </g>
</svg>
