<svg xmlns="http://www.w3.org/2000/svg" viewBox="0 0 65.72 65.72">
  <title>bridge-open</title>
  <g id="Layer_2" data-name="Layer 2">
    <g id="Laag_1" data-name="Laag 1">
      <g>
        <circle fill="#f26622" cx="32.86" cy="32.86" r="32.86"/>
        <path fill="#fff" d="M29.91,31.27a.89.89,0,0,0-1.25-.17l-6.2,4.72V24l0,0V20.75a1.2,1.2,0,0,0-1.19-1.19H20a1.2,1.2,0,0,0-1.19,1.19v4.48A13.78,13.78,0,0,1,15,29a1,1,0,0,0-.2.11,13.47,13.47,0,0,1-4.69,1.81A.13.13,0,0,0,10,31a11.25,11.25,0,0,1-1.27.15.77.77,0,0,0,.06,1.54h.05l.56-.06V37H8.76a.77.77,0,0,0,0,1.54h10v6.52a1.11,1.11,0,0,0,1.11,1.11h1.45a1.11,1.11,0,0,0,1.09-.92V38.07l7.28-5.55A.89.89,0,0,0,29.91,31.27ZM14.48,37H10.93V32.34a15.23,15.23,0,0,0,3.55-1.29Zm4.33-1.07V37H16V30.13a15.17,15.17,0,0,0,2.77-2.4Z"/>
        <path fill="#fff" d="M37.83,32.52l7.28,5.55v7.17a1.13,1.13,0,0,0,1.1.92h1.44a1.12,1.12,0,0,0,1.12-1.11V38.53h10a.77.77,0,0,0,0-1.54h-.61v-4.4l.55.06h.06a.78.78,0,0,0,.77-.71.77.77,0,0,0-.71-.83A11,11,0,0,1,57.61,31a.18.18,0,0,0-.1,0,13.54,13.54,0,0,1-4.69-1.81.68.68,0,0,0-.19-.11,13.65,13.65,0,0,1-3.86-3.79V20.75a1.2,1.2,0,0,0-1.19-1.19H46.33a1.2,1.2,0,0,0-1.2,1.19v3.17l0,0V35.82L38.92,31.1a.9.9,0,1,0-1.09,1.42Zm15.26-1.47a15.47,15.47,0,0,0,3.56,1.29V37H53.09Zm-4.32-3.32a14.84,14.84,0,0,0,2.77,2.4V37H48.77V27.73Z"/>
      </g>
    </g>
  </g>
</svg>
