<svg version="1" xmlns="http://www.w3.org/2000/svg" width="1386.667" height="1386.667" viewBox="0 0 1040.000000 1040.000000"><path d="M502.7 137.6c-.1.1-4.5.5-9.7.9-17.8 1.1-24.8 2-44.5 5.5-13.7 2.5-13.3 2.4-23.5 5-4.7 1.2-9.2 2.3-10 2.5-9.9 2.3-31.3 9.6-44 14.9-4.6 2-9 3.6-9.7 3.6-.7 0-1.3.4-1.3.9s-1.5 1.2-3.4 1.5c-1.9.4-3.6 1-3.8 1.4-.2.4-3.7 2.3-7.8 4.2-4.1 1.9-8.3 4.1-9.2 4.9-1 .8-1.8 1.1-1.8.8 0-2-42.9 25.1-55.5 35.1-.5.4-2.6 1.9-4.5 3.2-1.9 1.4-4.2 3.2-5 4-.9.8-3 2.6-4.7 4-12.9 10.5-33.9 30.9-44.3 42.9-3 3.5-6 6.9-6.5 7.5-.6.6-2.6 3.1-4.5 5.6-1.9 2.5-4.3 5.4-5.3 6.5-1 1.1-3.4 4.4-5.5 7.5-2 3-4.3 5.9-4.9 6.3-.7.4-1.3 1.4-1.3 2.2 0 .7-.3 1.5-.7 1.7-1.2.5-5.3 6.6-5.3 7.8 0 .5-.4 1-1 1-.5 0-1 .6-1 1.4 0 .8-.3 1.6-.8 1.8-1.3.5-12.4 19.8-19.8 34.3-6.8 13.4-16.8 36.5-19.4 45-.7 2.2-1.6 4.4-2 5-.5.5-.8 1.4-.8 1.8 0 .7-3.4 12.3-5.3 17.7-.7 2.3-2.6 9.2-3.5 13.2-.2 1-.6 2.7-.9 3.8-2 7.9-3.5 15-4.1 18.8-.3 2-.7 4.4-1 5.2-.3.8-.8 3.3-1 5.5-.3 2.2-.7 5.1-.9 6.4-.4 2.2-1 6.5-2 14.6-1.5 11.3-2 23.1-1.9 44.5 0 20.4.7 39.5 1.4 39.5.1 0 .3 1.8.5 4 .4 5.4 1.3 11.5 2 14.5.3 1.4.7 4.3.9 6.5.2 2.2.6 5.1 1 6.5.6 2.8 1.4 6.9 2.2 11.5.3 1.6.7 3.7 1 4.5.3.8.8 2.6 1.1 4 .2 1.3.6 2.7.9 2.9.3.3 109.1-108.1 241.9-240.9 164-164 241-241.7 240.1-242.2-.7-.4-2.8-1-4.7-1.3-1.9-.3-5.2-1-7.4-1.5s-5.3-1.1-7-1.4c-1.6-.3-3.9-.8-5-1-2.6-.5-8.8-1.4-14.5-2.1-2.5-.4-5.8-.8-7.4-1.1-1.5-.3-5.1-.7-8-.9-2.8-.2-8.5-.7-12.6-1.1-6.9-.6-43.8-1.3-44.3-.8zm-39.9 79.1c-9.3 9.2-16.8 16.7-16.8 16.7 0 .5-262.3 262.2-262.9 262.4-.5.2-.5-1.4 0-3.9.5-2.3.8-4.4.5-4.6-.3-.3 0-1.7.5-3.1.6-1.5 1.2-4.5 1.4-6.7.2-2.2.9-5.8 1.4-8 1.3-5.5 2.4-9.7 2.7-11.5.2-.8 1.5-5.8 2.9-11s2.7-10.2 3-11c3.4-13.7 18.3-47.9 28.7-66 8.3-14.4 8.3-14.5 8.8-15 .3-.3 3.6-5 7.2-10.5s7.4-10.9 8.5-12c1-1.1 3.1-3.8 4.8-6 1.6-2.2 3.4-4.5 4-5.1.5-.6 3-3.6 5.5-6.5 6.2-7.4 27.2-28.4 34.5-34.4 3.3-2.7 6.2-5.2 6.5-5.5.3-.3 2.5-2.1 5-4s5-3.9 5.7-4.5c.6-.5 2.8-2.1 4.8-3.5s5.1-3.6 6.9-5c1.8-1.4 4.9-3.4 6.9-4.5s3.7-2.3 3.7-2.7c0-.5.4-.8.9-.8s4.6-2.3 9.1-5.1 8.9-5.3 9.8-5.6c1-.4 3.3-1.6 5.2-2.8 1.9-1.2 3.8-2.3 4.2-2.4.4-.1 5.1-2.2 10.5-4.7 17.7-8.3 41-16.9 53.8-20 .6-.1 4.2-1 8-1.9 3.9-1 7.9-1.9 9-2.1 1.1-.1 2-.3 2-.4 0-.4 10-2.2 20-3.6 2.2-.3 4.1-.6 4.2-.7.1-.2 1.5-.4 3-.5 2.4-.2.5 2.1-13.9 16.5zM767.7 231.5c-38.3 38.2-69.7 69.8-69.7 70.1 0 .4 9.4 10.1 20.9 21.6l20.8 20.8 70.1-69.9 70.1-69.8-21.1-21.2c-11.6-11.6-21.2-21.1-21.3-21.1 0 0-31.5 31.3-69.8 69.5zM485.7 512.5c-38.3 38.2-69.7 69.7-69.7 70 0 .3 9.4 10 20.9 21.6l20.9 21 70.1-69.9 70.2-69.9-19.9-19.9c-10.9-10.9-20.5-20.4-21.3-21.1-1.2-1-13.1 10.3-71.2 68.2zM668.7 686.3c-131.9 132-239.5 240.2-239.2 240.5.3.3 1.1.7 1.8.8.7.1 2.3.4 3.7.7 16 3.4 35.2 6.5 43.5 7.1 2.8.2 5 .4 5 .5 0 .1 4.7.5 10.5.8 20.9 1.2 49 .7 66.5-1.2 10.5-1.1 14.4-1.6 19.5-2.5 3-.5 7.2-1.1 9.3-1.5 2.1-.3 7.9-1.4 13-2.6 5.1-1.1 10.3-2.2 11.7-2.5 1.4-.2 3.2-.7 4-1 .8-.3 2.6-.8 4-1.1 3.4-.7 4.3-.9 6-1.6 2.9-1.2 13-3.8 13.3-3.5.2.2 1-.2 1.8-.8.8-.6 2.8-1.4 4.4-1.8 3.3-.8 16.7-5.8 23.2-8.7 2.4-1.1 4.5-1.9 4.8-1.9 1.5 0 27.3-12.6 39.5-19.3 8.7-4.7 29.5-17.9 29.8-18.8.2-.5.8-.9 1.4-.9 1.1 0 24.8-17.7 30.8-23 1.9-1.7 5.7-5 8.4-7.3 6.8-5.7 27.9-26.9 34.6-34.6 3-3.5 6-6.9 6.5-7.5.6-.6 3.5-4.3 6.5-8.1 3-3.9 5.7-7.2 6.1-7.5.3-.3 4.7-6.6 9.7-14 5-7.4 9.5-14 9.9-14.6 4.3-5.8 25.2-45.1 25.8-48.4.1-.3.9-2.1 1.7-4 4.5-9.8 5.8-13 11.3-28.8 2.4-6.7 4.2-12.2 3.9-12.2-.3 0 0-.9.6-2 .9-1.6 7.3-25.1 8.6-31.5.2-1.1.6-3.1.9-4.5 2.3-11.2 4.1-22.4 5-30.5.3-2.2.7-4.9.9-6 2.6-10.9 2.7-75.4.2-89-.2-1.1-.7-4.7-1.1-8-.4-3.3-1-7.1-1.2-8.5-.2-1.4-.5-3.6-.7-5-.3-2.3-1.9-10.3-3.1-16-.3-1.4-.8-4-1.1-5.8-.3-1.8-.9-3.4-1.3-3.5-.3-.2-108.5 107.6-240.4 239.6zM857 585c0 .5-.4 1-1 1-.5 0-1-.5-1-1 0-.6.5-1 1-1 .6 0 1 .4 1 1zm-1.3 2.6c.3.8-.6 7.5-2.1 14.7-3.3 15.9-2.9 14.5-5.5 23.7-1.2 4.1-2.4 8.5-2.6 9.7-.3 1.2-1 3.5-1.6 5-.6 1.6-1.2 3.5-1.4 4.3-.2.8-1.2 3.7-2.2 6.5-2.5 6.3-3.5 9-3.3 9 1.1 0-14.5 32.9-20.9 44-2.8 4.8-5.1 8.9-5.1 9.1 0 1.3-17.8 26.6-26 36.9-14.1 17.8-36.8 40.1-55.5 54.7-8.5 6.7-11.4 8.8-11.9 8.8-.4 0-1.9 1.1-3.4 2.5s-3.6 2.8-4.6 3.1c-1.1.4-2.9 1.5-4 2.5-1.1 1.1-2.5 1.9-3.2 1.9-.7 0-1.4.4-1.6.9-.3.9-5.2 4-9.8 6.3-1.4.7-2.7 1.5-3 1.9-.6.7-28.3 14.4-34.5 17.1-5.7 2.4-22.8 9-24 9.2-.5.1-4.6 1.4-9 2.8-7.4 2.4-20.5 6-26.5 7.2-1.4.3-3.6.7-5 1-10.2 2.3-22 3.9-22 3.1 0-.8 286.4-287.3 287.3-287.4.4-.1 1 .6 1.4 1.5zM203.8 793.6c-38.4 38.2-69.8 69.7-69.8 69.9 0 1 41 41.5 41.9 41.5.6 0 32.4-31.2 70.7-69.4l69.6-69.4-21-21.1C283.6 733.5 274 724 273.8 724c-.2 0-31.7 31.3-70 69.6z"/></svg>