<svg id="Laag_1" data-name="Laag 1" xmlns="http://www.w3.org/2000/svg" viewBox="0 0 362.83 362.83">
  <defs>
    <style>
      .cls-1 {
        fill: none;
        stroke: #1d1d1b;
        stroke-width: 20px;
        stroke-dasharray: 60 50;
      }
    </style>
  </defs>
  <title>crest-black</title>
  <path d="M194.91,288a105.77,105.77,0,0,0,19.9-4.69A106.22,106.22,0,0,0,283.51,210a108.06,108.06,0,0,0,2.68-13.28L194.91,288M75.76,170.66l91.43-94.8a105.16,105.16,0,0,0-21.44,5.29,106.21,106.21,0,0,0-67.37,74.54,107.83,107.83,0,0,0-2.62,15m105,137.11h0A125,125,0,0,1,152,304.4L302.62,153.74a125.38,125.38,0,0,1-121.89,154ZM59,212.34h0A125.21,125.21,0,0,1,210.51,60.8Z"/>
  <path class="cls-1" d="M83.53,274,278.18,80"/>
</svg>
